<?xml version="1.0" encoding="UTF-8"?>
<svg version="1.1" xmlns="http://www.w3.org/2000/svg" width="512" height="512">
<path d="M0 0 C1.56495921 -0.00461599 3.12991408 -0.01097357 4.69485998 -0.01890898 C8.97008633 -0.03552971 13.24495322 -0.0273892 17.52018046 -0.0149641 C22.14057841 -0.00588606 26.76091605 -0.01989696 31.38130188 -0.03088379 C40.42270238 -0.04864426 49.46396985 -0.04484005 58.5053755 -0.03323323 C65.85533527 -0.02418944 73.20525782 -0.02297899 80.55522156 -0.02732849 C81.60241713 -0.02794142 82.6496127 -0.02855436 83.72854146 -0.02918586 C85.85608456 -0.0304648 87.98362764 -0.03176165 90.11117071 -0.03307623 C110.04809322 -0.04447478 129.98494209 -0.03137968 149.92185253 -0.00987476 C167.01829175 0.00799555 184.11462231 0.00489124 201.21105957 -0.0135498 C221.07799966 -0.0349693 240.94487525 -0.04337621 260.81182528 -0.03110075 C262.93141968 -0.02982659 265.0510141 -0.02856911 267.17060852 -0.02732849 C268.73481616 -0.02640284 268.73481616 -0.02640284 270.33062395 -0.02545848 C277.66938093 -0.02200883 285.00809691 -0.02782565 292.34684753 -0.0372467 C301.29374912 -0.04848004 310.24051037 -0.04539855 319.18739593 -0.02412373 C323.74981397 -0.01363131 328.31199828 -0.00946058 332.87441444 -0.02272034 C337.05543652 -0.03468762 341.23600941 -0.02801072 345.41699106 -0.00681013 C346.92491887 -0.00236236 348.43288508 -0.00456906 349.94078797 -0.01431328 C363.81102217 -0.0970299 375.22640512 2.84225344 385.52307129 12.54309082 C394.29223492 21.83676518 398.62167937 32.3729062 398.60342407 45.15161133 C398.60598735 46.23992225 398.60598735 46.23992225 398.6086024 47.35021925 C398.61187108 49.75771237 398.60093739 52.16492068 398.58996582 54.5723877 C398.58940114 56.30753574 398.58971938 58.04268426 398.59085083 59.77783203 C398.59142312 64.4714657 398.5796889 69.16499651 398.56570292 73.85860634 C398.55317486 78.76999002 398.55202342 83.68137624 398.5496521 88.59277344 C398.54344343 97.8856795 398.5270409 107.17853833 398.50695312 116.47142363 C398.48457505 127.05423067 398.47359589 137.63704001 398.46356225 148.21986485 C398.44267413 169.98258108 398.40751007 191.74525485 398.36291504 213.50793457 C398.97177048 213.56915497 399.58062592 213.63037537 400.20793152 213.69345093 C401.01148575 213.77773346 401.81503998 213.86201599 402.64294434 213.94885254 C403.83466499 214.07162064 403.83466499 214.07162064 405.05046082 214.1968689 C421.83953216 216.45529362 437.55638105 227.55942604 447.90588379 240.61340332 C461.15839962 258.8383874 464.86830192 278.60049498 462.07434082 300.80090332 C458.80381078 318.39591593 447.60158198 334.91020529 433.36291504 345.50793457 C415.61292825 357.23368342 395.12729002 361.62783082 374.00744629 357.85949707 C360.4660955 354.52053386 342.80096749 346.96045446 335.05208045 334.37972504 C333.48519616 332.26732241 333.48519616 332.26732241 330.81351489 332.00818056 C329.26823492 332.00834156 329.26823492 332.00834156 327.69173717 332.00850582 C326.50307653 331.99890833 325.31441588 331.98931084 324.08973521 331.97942251 C322.12111104 331.99413267 322.12111104 331.99413267 320.11271667 332.00914001 C318.70941789 332.0054151 317.30612285 331.99992753 315.9028371 331.99282318 C312.03716709 331.97832835 308.17189826 331.98876916 304.30624235 332.00310624 C300.14032229 332.01419377 295.97446339 332.00223623 291.80854797 331.99291992 C284.5845386 331.97980868 277.36064486 331.98100854 270.13663292 331.99151421 C259.67662272 332.00644212 249.21674836 331.99654676 238.75674591 331.97999502 C221.7669855 331.95350932 204.77725551 331.94267582 187.78747559 331.94372559 C186.26134348 331.94381307 186.26134348 331.94381307 184.70438043 331.94390232 C180.58278958 331.94416813 176.46119874 331.9444854 172.33960791 331.94486558 C161.01721703 331.94583025 149.69482708 331.94450645 138.37243652 331.94177246 C137.35958785 331.94153257 136.34673918 331.94129268 135.30319812 331.94104552 C118.39125503 331.9366328 101.4793401 331.9203719 84.56741363 331.89655167 C74.14058929 331.88250377 63.71387231 331.87958072 53.28704432 331.89117456 C46.13245191 331.89851969 38.9779134 331.89540618 31.82332613 331.88421612 C27.70009968 331.87816613 23.57702427 331.8769915 19.45380783 331.8890934 C15.67022131 331.90013097 11.88690117 331.89713343 8.10332534 331.88354994 C6.10463411 331.87991759 4.10593228 331.89094594 2.10727233 331.90270323 C-12.50630268 331.81879513 -25.70762519 329.36646251 -36.94958496 319.47277832 C-43.98327597 312.13269547 -49.74341992 302.32429988 -49.77409935 291.96030521 C-49.77917389 291.04770846 -49.78424844 290.13511171 -49.78947675 289.19486052 C-49.79022339 287.69649622 -49.79022339 287.69649622 -49.79098511 286.16786194 C-49.79536736 285.10372588 -49.79974962 284.03958981 -49.80426466 282.9432072 C-49.81765547 279.36525322 -49.82383224 275.78732387 -49.82995605 272.20935059 C-49.83785693 269.64860421 -49.84612587 267.08785895 -49.85473633 264.52711487 C-49.87869768 256.83269855 -49.89388652 249.13828345 -49.9067964 241.44384161 C-49.91051014 239.26905846 -49.91448324 237.09427595 -49.91854906 234.91949344 C-49.9437915 221.40343312 -49.96583644 207.88737175 -49.97827721 194.37129307 C-49.98120673 191.24146585 -49.98416842 188.11163866 -49.98718262 184.98181152 C-49.98792867 184.20394249 -49.98867472 183.42607347 -49.98944338 182.62463265 C-50.0020843 170.03680649 -50.03529103 157.44912199 -50.07698445 144.86136199 C-50.11947666 131.92591971 -50.14298078 118.99054978 -50.14819777 106.05503792 C-50.15160405 98.79709392 -50.16326592 91.53937113 -50.19630051 84.28149605 C-50.22735155 77.44833323 -50.23267708 70.61556084 -50.22091675 63.7823391 C-50.22069637 61.28025502 -50.22897181 58.77815287 -50.24657059 56.27613068 C-50.35542841 39.90264672 -50.11086273 26.70100032 -38.86364746 13.72668457 C-27.61870182 2.52119488 -15.38838344 -0.09944128 0 0 Z M-28.16442871 28.25012207 C-32.48243833 34.87030658 -33.0741116 40.25128236 -33.03149414 48.00117493 C-33.03758524 49.04548965 -33.04367635 50.08980437 -33.04995203 51.16576499 C-33.0665762 54.65859476 -33.0618069 58.15105974 -33.05700684 61.6439209 C-33.06434751 64.1508675 -33.07293374 66.65781071 -33.08267212 69.16474915 C-33.10258993 75.26392757 -33.10826865 81.3629722 -33.10648423 87.46217874 C-33.10517502 92.42189215 -33.10898887 97.38157596 -33.1164093 102.3412838 C-33.11850857 103.77161826 -33.12060617 105.20195273 -33.12270212 106.6322872 C-33.12374565 107.34427961 -33.12478918 108.05627201 -33.12586433 108.78983995 C-33.14475508 122.24715626 -33.14372019 135.70441803 -33.136895 149.16174211 C-33.13132142 161.46042699 -33.15213905 173.75890344 -33.18525547 186.05753962 C-33.2190274 198.69814616 -33.23415638 211.33865296 -33.22953844 223.97930545 C-33.22729715 231.07109224 -33.23248676 238.16268644 -33.25743103 245.25443459 C-33.28069533 251.92516094 -33.27781902 258.59538332 -33.25750351 265.26614189 C-33.2540936 267.71142539 -33.25918161 270.15673808 -33.27348709 272.60198212 C-33.29169963 275.94640625 -33.27891361 279.28936279 -33.25854492 282.63374329 C-33.27732169 284.07701255 -33.27732169 284.07701255 -33.29647779 285.54943877 C-33.19544691 293.31454034 -31.0020498 299.90403748 -25.62925863 305.65832835 C-18.41997519 312.33497811 -11.50032685 314.63468599 -1.74506569 314.6309824 C-0.58359886 314.63297345 0.57786797 314.6349645 1.77453077 314.63701588 C3.6743346 314.63264662 3.6743346 314.63264662 5.61251831 314.62818909 C6.97888097 314.62862535 8.34524354 314.62950128 9.71160567 314.63077825 C13.46057966 314.63301234 17.20952503 314.62901677 20.95849538 314.62400019 C25.00341747 314.6196803 29.04833797 314.62114321 33.09326172 314.62190247 C40.09949501 314.62242672 47.10571898 314.61929016 54.11194992 314.61366463 C64.24177412 314.60553636 74.37159382 314.60293304 84.50142093 314.60167664 C100.9365374 314.59948821 117.37164892 314.59283377 133.8067627 314.58337402 C149.77160619 314.57419451 165.73644834 314.56711631 181.70129395 314.56286621 C182.68542615 314.56260349 183.66955834 314.56234076 184.68351273 314.56207008 C189.62063243 314.56076504 194.55775214 314.55950133 199.49487185 314.55825818 C240.4508897 314.54789207 281.40690209 314.53027942 322.36291504 314.50793457 C322.08032837 313.35225983 321.7977417 312.19658508 321.5065918 311.00588989 C321.13619918 309.46837928 320.76605442 307.93080895 320.39611816 306.39318848 C320.20978821 305.63401627 320.02345825 304.87484406 319.83148193 304.09266663 C318.37006242 297.98455056 317.73223113 292.1732998 317.86291504 285.88293457 C317.8757251 284.90783936 317.88853516 283.93274414 317.9017334 282.92810059 C318.44442784 263.43458049 326.50472231 246.0957004 340.36291504 232.50793457 C349.99137766 224.02470759 361.37145496 218.20562314 373.81994629 215.30480957 C374.55007935 215.12869141 375.2802124 214.95257324 376.0324707 214.77111816 C377.80779574 214.3438193 379.58515158 213.92497221 381.36291504 213.50793457 C381.45644763 190.99389993 381.526938 168.47989744 381.57016373 145.96570778 C381.59076962 135.5114555 381.61885251 125.0573241 381.66467285 114.60314941 C381.704601 105.48895 381.73036219 96.37483816 381.73926902 87.26055372 C381.74447363 82.43670075 381.75666523 77.61309824 381.78583527 72.78932571 C381.81309887 68.24374522 381.82133801 63.69851704 381.81534576 59.15286255 C381.81644112 57.48965919 381.82432964 55.82644336 381.83973694 54.163311 C381.93069903 43.83284166 381.5201876 34.66738141 374.98791504 26.13293457 C368.76063694 19.90565647 362.59723039 17.26307557 353.82728195 17.24787235 C352.5221961 17.24080676 351.21711025 17.23374117 349.87247634 17.22646147 C348.43103617 17.22871265 346.98959629 17.23115913 345.54815674 17.23377991 C344.01155215 17.22932621 342.47494985 17.22401173 340.93835092 17.21791118 C336.71840839 17.20373666 332.49853954 17.20206779 328.27857661 17.20250809 C323.72628555 17.20085941 319.1740248 17.18779198 314.62174988 17.17631531 C304.66927223 17.15347068 294.71681592 17.14554537 284.76431561 17.14048886 C278.54925659 17.13723142 272.33420377 17.13070867 266.11914825 17.12348747 C248.90902277 17.10392276 231.69890304 17.08751762 214.48876572 17.08461094 C212.83697674 17.08432958 212.83697674 17.08432958 211.15181829 17.08404255 C208.91946904 17.0836763 206.68711979 17.0833126 204.45477054 17.08295143 C203.34664084 17.08276862 202.23851114 17.08258581 201.09680176 17.08239746 C199.43257696 17.08212664 199.43257696 17.08212664 197.73473147 17.08185034 C179.75517147 17.07830832 161.77573122 17.05128361 143.79621276 17.01389957 C125.3338255 16.9758189 106.87149766 16.95645348 88.40907025 16.95615143 C78.04428804 16.95556683 67.6796487 16.94707301 57.31490326 16.91815376 C48.48971796 16.8936432 39.66472764 16.88635487 30.8395175 16.90140129 C26.33795192 16.90857132 21.83677139 16.90770872 17.33524895 16.88499069 C13.21076 16.86437511 9.08695151 16.86702475 4.96246973 16.88786554 C3.473916 16.89135551 1.98531291 16.88647121 0.49682388 16.8721611 C-11.67811724 16.76269752 -20.10778097 18.78801489 -28.16442871 28.25012207 Z M349.17541504 247.19543457 C337.55154215 259.33696982 333.89865589 273.93818252 334.15197754 290.21496582 C334.66873652 304.82776136 341.98323146 317.56001819 352.36291504 327.50793457 C364.62754307 338.70132058 378.41472583 342.16828921 394.59729004 341.81652832 C409.13549949 341.12299933 422.16657364 333.83543882 432.03869629 323.37512207 C443.37856811 309.38610372 447.05833171 294.29063068 445.36291504 276.50793457 C442.36118629 260.8214811 433.50113185 248.48844843 420.75354004 239.03918457 C396.91448414 223.76972393 369.45064016 228.43793264 349.17541504 247.19543457 Z " fill="#6039FE" transform="translate(49.6370849609375,76.4920654296875)"/>
<path d="M0 0 C13.53582884 10.46801988 21.06557573 24.82284538 23.2578125 41.74609375 C24.58429756 62.02565527 21.46999642 79.14473143 11.2578125 96.74609375 C10.73960937 97.64199219 10.22140625 98.53789062 9.6875 99.4609375 C7.16764739 103.48857078 4.39529438 106.6674475 0.9453125 109.93359375 C-1.81291623 112.55522449 -2.66563724 113.47816784 -3.7421875 117.24609375 C-3.7421875 118.07109375 -3.7421875 118.89609375 -3.7421875 119.74609375 C-2.8744873 120.01921387 -2.00678711 120.29233398 -1.11279297 120.57373047 C2.12194751 121.69883722 5.10696668 123.01213822 8.1875 124.50390625 C9.86428833 125.31287354 9.86428833 125.31287354 11.57495117 126.13818359 C12.74904541 126.71004395 13.92313965 127.2819043 15.1328125 127.87109375 C16.35064186 128.46310575 17.56849682 129.0550651 18.78637695 129.64697266 C21.18592886 130.81399053 23.58418345 131.98357059 25.98193359 133.15429688 C28.74975931 134.49922336 31.52525693 135.82433536 34.30859375 137.13671875 C45.1231483 142.28224482 53.35419637 147.36044428 58.2578125 158.74609375 C59.31533397 162.1389665 59.40260323 165.29636928 59.43481445 168.84057617 C59.45406731 170.68851021 59.45406731 170.68851021 59.47370911 172.57377625 C59.48187918 173.91636754 59.4893224 175.25896342 59.49609375 176.6015625 C59.50016928 177.28171228 59.5042448 177.96186207 59.50844383 178.66262245 C59.52927173 182.26506873 59.54358569 185.86747733 59.55297852 189.4699707 C59.56401638 193.17079345 59.59839433 196.87101055 59.63815022 200.57161999 C59.66443433 203.43458591 59.67268085 206.29741029 59.67625999 209.16048622 C59.68343429 211.18163785 59.70982346 213.20269225 59.73664856 215.22367859 C59.71659722 223.7753164 58.60854629 230.03911057 53.6171875 237.05078125 C53.08609375 237.56898438 52.555 238.0871875 52.0078125 238.62109375 C51.48703125 239.15476562 50.96625 239.6884375 50.4296875 240.23828125 C42.63388506 245.65047503 34.3809377 245.1755432 25.24804688 245.13427734 C23.73276899 245.13834761 22.21749408 245.14369204 20.70222473 245.15020752 C16.60510989 245.16383289 12.5082228 245.15860234 8.4111042 245.14907026 C4.11337823 245.14144881 -0.18432889 245.14852616 -4.48205566 245.15322876 C-11.69787072 245.15867909 -18.9135935 245.1515137 -26.12939453 245.13720703 C-34.45917547 245.12088189 -42.78873608 245.12617091 -51.11851168 245.14268625 C-58.28393829 245.15632175 -65.44929877 245.1582107 -72.61473417 245.15037024 C-76.88835986 245.14570505 -81.16188215 245.14503699 -85.4355011 245.15497971 C-89.45425488 245.1636772 -93.47272595 245.15757698 -97.49144936 245.14029694 C-98.96196843 245.1363469 -100.43251149 245.13744061 -101.90302086 245.14408493 C-117.75405791 245.2090758 -117.75405791 245.2090758 -124.9140625 240.23828125 C-125.43484375 239.70460938 -125.955625 239.1709375 -126.4921875 238.62109375 C-127.02328125 238.10289062 -127.554375 237.5846875 -128.1015625 237.05078125 C-133.90774991 228.89447037 -134.33461082 221.26087719 -134.2734375 211.4375 C-134.2761392 210.06184109 -134.28002722 208.68618406 -134.28503418 207.31053162 C-134.29089955 204.44015152 -134.28246486 201.57027254 -134.26367188 198.69995117 C-134.24090466 195.04743987 -134.25400855 191.39610609 -134.27796173 187.74363804 C-134.29251952 184.90629953 -134.28776825 182.06923329 -134.27745056 179.23188591 C-134.27353879 177.23910114 -134.28554479 175.24630515 -134.29797363 173.2535553 C-134.18956682 162.66531788 -132.16416259 154.36172641 -124.76000977 146.53222656 C-117.54583444 140.14639394 -108.04907797 136.33023937 -99.4296875 132.24609375 C-97.7290918 131.43205078 -97.7290918 131.43205078 -95.99414062 130.6015625 C-92.58184311 128.97221474 -89.16334893 127.35673862 -85.7421875 125.74609375 C-84.83463715 125.31635254 -84.83463715 125.31635254 -83.90875244 124.87792969 C-82.11165211 124.02784953 -80.31172275 123.18375813 -78.51171875 122.33984375 C-76.92194214 121.59250977 -76.92194214 121.59250977 -75.30004883 120.83007812 C-72.7421875 119.74609375 -72.7421875 119.74609375 -70.7421875 119.74609375 C-70.7421875 118.42609375 -70.7421875 117.10609375 -70.7421875 115.74609375 C-71.32613281 115.483125 -71.91007812 115.22015625 -72.51171875 114.94921875 C-85.6613487 107.85624848 -93.34767852 90.33808467 -97.7421875 76.74609375 C-103.19732436 57.63245133 -102.56741849 36.72925652 -93.5546875 18.80859375 C-85.38978589 4.85149699 -73.98722403 -4.49776007 -58.55859375 -9.23046875 C-38.55843404 -14.17848514 -17.1033889 -11.94853475 0 0 Z M-73.7421875 19.74609375 C-81.07417227 29.74275018 -83.86892477 40.19771743 -83.9296875 52.49609375 C-83.94386719 53.8109375 -83.95804688 55.12578125 -83.97265625 56.48046875 C-84.0948159 59.83051383 -84.0948159 59.83051383 -81.7421875 61.74609375 C-72.58963567 52.78309181 -68.68828527 41.71776874 -65.6015625 29.546875 C-64.7421875 26.74609375 -64.7421875 26.74609375 -62.7421875 24.74609375 C-59.4855013 23.55078255 -57.01341483 23.61038574 -53.7421875 24.74609375 C-51.16739773 27.29170743 -48.98798521 29.89188462 -46.77539062 32.7434082 C-42.44132201 38.31458138 -37.94063544 42.3788185 -30.7421875 43.74609375 C-28.88484035 43.85781128 -27.02446495 43.9235354 -25.1640625 43.95703125 C-23.54564453 43.99957031 -23.54564453 43.99957031 -21.89453125 44.04296875 C-19.64208583 44.09468966 -17.38945873 44.13906605 -15.13671875 44.17578125 C-8.62014093 44.3617478 -3.7059355 45.11502846 2.2578125 47.74609375 C3.58512754 48.10263783 4.91750537 48.44201203 6.2578125 48.74609375 C5.687568 35.60195802 1.14376992 24.01505189 -8.5546875 14.93359375 C-26.89125533 -0.12609694 -57.80875526 2.46013414 -73.7421875 19.74609375 Z M-54.7421875 49.74609375 C-55.34353516 51.08800781 -55.34353516 51.08800781 -55.95703125 52.45703125 C-61.18385744 63.72346761 -68.05281973 71.91213683 -77.7421875 79.74609375 C-71.10809784 94.59740809 -62.53993081 103.60021497 -47.5546875 110.18359375 C-39.87316629 112.97358023 -34.07000934 112.07390429 -26.61328125 109.13671875 C-13.59629627 102.83189337 -4.43480139 92.19144692 1.43359375 79.12890625 C2.55266098 75.8936882 2.19502994 74.02635479 1.2578125 70.74609375 C-2.52835087 64.30808334 -2.52835087 64.30808334 -8.7421875 60.74609375 C-10.43539734 60.64334099 -12.13192952 60.59125505 -13.828125 60.5703125 C-29.37435727 60.24827186 -42.01223622 59.61427303 -54.7421875 49.74609375 Z M-27.1171875 126.24609375 C-36.13889314 128.99296228 -44.74905925 128.14426128 -53.7421875 125.74609375 C-54.25103791 133.15142344 -54.25103791 133.15142344 -52.1171875 140.12109375 C-47.44286598 145.28744912 -44.0611801 148.4907116 -36.9765625 148.87109375 C-32.49935214 148.62062044 -29.24753919 147.18688182 -26.01171875 144.08984375 C-21.89552777 139.4750168 -20.6059662 136.32490391 -20.6796875 130.05859375 C-20.68871094 129.06472656 -20.69773438 128.07085937 -20.70703125 127.046875 C-20.71863281 126.28761719 -20.73023438 125.52835938 -20.7421875 124.74609375 C-23.15621443 124.74609375 -24.83563512 125.44865797 -27.1171875 126.24609375 Z M-76.59936523 140.41088867 C-77.3670372 140.7751445 -78.13470917 141.13940033 -78.92564392 141.51469421 C-79.75068924 141.91461075 -80.57573456 142.31452728 -81.42578125 142.7265625 C-82.27769547 143.13642899 -83.12960968 143.54629547 -84.00733948 143.96858215 C-85.81021101 144.83893855 -87.61152004 145.71253783 -89.41137695 146.58911133 C-92.1593048 147.92369451 -94.91608732 149.23857363 -97.67382812 150.55273438 C-99.42505927 151.4011474 -101.1757294 152.25071958 -102.92578125 153.1015625 C-103.74880234 153.49135788 -104.57182343 153.88115326 -105.41978455 154.28276062 C-109.90661334 156.49476918 -112.99758281 158.39311791 -115.7421875 162.74609375 C-116.76894708 165.82637249 -116.89313798 168.00988951 -116.93505859 171.23974609 C-116.95112152 172.3645639 -116.96718445 173.48938171 -116.98373413 174.64828491 C-117.02818138 179.78243139 -117.06966931 184.91649015 -117.09228516 190.05078125 C-117.10563039 192.76108507 -117.1334966 195.47063701 -117.17431641 198.18066406 C-117.23312097 202.08526585 -117.25094408 205.9895018 -117.265625 209.89453125 C-117.28829437 211.10611908 -117.31096375 212.31770691 -117.33432007 213.56600952 C-117.37101604 220.18656688 -117.37101604 220.18656688 -114.55444336 226.01879883 C-111.4303779 227.93760803 -109.85569147 228.33585643 -106.22265625 228.234375 C-104.6902832 228.21020508 -104.6902832 228.21020508 -103.12695312 228.18554688 C-102.07185547 228.14365234 -101.01675781 228.10175781 -99.9296875 228.05859375 C-98.85525391 228.03603516 -97.78082031 228.01347656 -96.67382812 227.99023438 C-94.028519 227.93144973 -91.38607337 227.84933332 -88.7421875 227.74609375 C-88.7328418 226.97418701 -88.72349609 226.20228027 -88.71386719 225.40698242 C-88.66024044 221.91519793 -88.57657733 218.42476444 -88.4921875 214.93359375 C-88.47800781 213.71865234 -88.46382812 212.50371094 -88.44921875 211.25195312 C-88.41699219 210.08857422 -88.38476562 208.92519531 -88.3515625 207.7265625 C-88.3201416 206.11624146 -88.3201416 206.11624146 -88.28808594 204.47338867 C-87.7421875 201.74609375 -87.7421875 201.74609375 -85.89160156 199.89575195 C-82.96435093 198.3300519 -81.0177399 198.3366497 -77.7421875 198.74609375 C-75.4296875 199.99609375 -75.4296875 199.99609375 -73.7421875 201.74609375 C-71.63400239 210.17883418 -72.13688314 219.0627896 -71.7421875 227.74609375 C-48.9721875 227.74609375 -26.2021875 227.74609375 -2.7421875 227.74609375 C-2.4121875 220.15609375 -2.0821875 212.56609375 -1.7421875 204.74609375 C1.2578125 199.74609375 1.2578125 199.74609375 3.2578125 198.74609375 C6.77542896 198.36374413 8.55726169 198.2091845 11.41503906 200.39941406 C13.70851078 203.32003544 13.79204129 204.9233043 13.8671875 208.60546875 C13.89941406 209.72050781 13.93164062 210.83554687 13.96484375 211.984375 C13.97902344 213.14324219 13.99320313 214.30210937 14.0078125 215.49609375 C14.03746094 216.67042969 14.06710938 217.84476562 14.09765625 219.0546875 C14.16831977 221.95189197 14.22103516 224.8482933 14.2578125 227.74609375 C17.98656638 227.8916957 21.71458684 227.98026418 25.4453125 228.05859375 C26.50041016 228.10048828 27.55550781 228.14238281 28.64257812 228.18554688 C29.66416016 228.20166016 30.68574219 228.21777344 31.73828125 228.234375 C33.14436646 228.27365112 33.14436646 228.27365112 34.57885742 228.3137207 C38.68844894 227.44296519 39.90083524 226.25192697 42.2578125 222.74609375 C42.99301485 218.5092601 42.93416461 214.32604277 42.88671875 210.03515625 C42.89033669 208.17290909 42.89033669 208.17290909 42.89402771 206.27304077 C42.89279848 202.9774778 42.86776775 199.68311083 42.83428955 196.38775635 C42.8203447 194.37573936 42.82388153 192.36456899 42.83422852 190.35253906 C42.85304667 186.47552197 42.84354611 182.59965331 42.82421875 178.72265625 C42.82917862 177.5276651 42.83413849 176.33267395 42.83924866 175.10147095 C42.74578578 168.46480419 42.37414957 164.06557655 38.2578125 158.74609375 C36.47727668 157.14060712 36.47727668 157.14060712 34.44921875 156.2265625 C33.711875 155.84870605 32.97453125 155.47084961 32.21484375 155.08154297 C31.02955078 154.51330811 31.02955078 154.51330811 29.8203125 153.93359375 C28.58667969 153.31508545 28.58667969 153.31508545 27.328125 152.68408203 C24.64816541 151.3496435 21.95411602 150.04715367 19.2578125 148.74609375 C17.31878906 147.79211646 15.37998892 146.83768516 13.44140625 145.8828125 C11.54791462 144.96010311 9.65340682 144.03947566 7.7578125 143.12109375 C6.85619385 142.6830542 5.9545752 142.24501465 5.02563477 141.79370117 C4.18444092 141.3938501 3.34324707 140.99399902 2.4765625 140.58203125 C1.73341797 140.2267334 0.99027344 139.87143555 0.22460938 139.50537109 C-1.85725817 138.56602236 -1.85725817 138.56602236 -4.7421875 138.74609375 C-4.96132812 139.37515625 -5.18046875 140.00421875 -5.40625 140.65234375 C-9.3671264 151.34348981 -14.28449599 157.80186635 -24.7421875 162.74609375 C-33.76532945 166.22812255 -42.9499754 165.40951546 -51.7421875 161.74609375 C-60.06311996 157.43799807 -65.59359878 151.66288086 -68.6171875 142.74609375 C-69.00776291 141.4172395 -69.38878247 140.0853128 -69.7421875 138.74609375 C-72.79096117 138.74609375 -73.92498624 139.13162244 -76.59936523 140.41088867 Z " fill="#6837FE" transform="translate(171.7421875,125.25390625)"/>
<path d="M0 0 C1.2800441 -0.01265396 2.5600882 -0.02530792 3.87892151 -0.03834534 C5.29008889 -0.02703003 6.70125225 -0.01520259 8.1124115 -0.00291443 C9.60418549 -0.00805459 11.09595341 -0.0153366 12.58770752 -0.02459717 C16.63323448 -0.04310592 20.6781021 -0.03017704 24.72360158 -0.01050687 C28.95782182 0.00588247 33.1920004 -0.00293351 37.42623901 -0.00802612 C44.53560415 -0.01254628 51.64470611 0.00331903 58.75401306 0.03126526 C66.97425145 0.06332925 75.19401551 0.06329649 83.41428763 0.04605049 C91.32247051 0.03019025 99.23047944 0.03691488 107.13865471 0.0539875 C110.50423753 0.06086141 113.86968104 0.05982216 117.23526192 0.05244255 C121.19743639 0.04478464 125.15907057 0.05688899 129.12115288 0.08429146 C130.57559988 0.09118121 132.0300973 0.09126688 133.48454285 0.08407593 C135.46878581 0.07539556 137.45309237 0.09375799 139.43725586 0.11352539 C140.54797486 0.11633231 141.65869387 0.11913923 142.80307102 0.12203121 C146.32694416 0.7474153 147.485793 1.8334284 149.65513611 4.62818909 C150.81225419 8.25382575 150.99030701 9.89081311 149.40513611 13.37818909 C147.65513611 15.62818909 147.65513611 15.62818909 144.65513611 17.62818909 C141.95456028 17.87987137 141.95456028 17.87987137 138.62670898 17.88215637 C137.36624252 17.88779602 136.10577606 17.89343567 134.80711365 17.89924622 C133.40757694 17.89535746 132.0080408 17.89126112 130.60850525 17.88697815 C129.13673733 17.88968779 127.66497077 17.89324857 126.19320679 17.89759827 C122.19320971 17.90672859 118.19331562 17.90317517 114.1933167 17.8968401 C110.00980552 17.89178248 105.82630326 17.89647097 101.64279175 17.89961243 C94.61572179 17.90325317 87.58869384 17.89845056 80.56163025 17.88893127 C72.43584036 17.87805074 64.31015087 17.88156894 56.18436342 17.89258409 C49.21104099 17.90165893 42.23774879 17.90294114 35.26442236 17.89770675 C31.09818116 17.89458759 26.93198715 17.89417614 22.76574898 17.90077972 C18.84808591 17.90655527 14.93055229 17.90255247 11.01290321 17.89099121 C9.57456935 17.88834556 8.1362246 17.88910811 6.69789505 17.89351654 C4.7354496 17.89897698 2.77298036 17.8909172 0.81054688 17.88215637 C-0.28802108 17.88140232 -1.38658903 17.88064827 -2.51844692 17.87987137 C-5.3465277 17.62804093 -6.97739277 17.1569575 -9.34486389 15.62818909 C-11.64454952 12.4086292 -11.89835027 9.50259376 -11.34486389 5.62818909 C-7.80349309 1.22032724 -5.62249103 0.00296691 0 0 Z " fill="#7835FE" transform="translate(259.34486389160156,256.37181091308594)"/>
<path d="M0 0 C1.2800441 -0.01265396 2.5600882 -0.02530792 3.87892151 -0.03834534 C5.29008889 -0.02703003 6.70125225 -0.01520259 8.1124115 -0.00291443 C9.60418549 -0.00805459 11.09595341 -0.0153366 12.58770752 -0.02459717 C16.63323448 -0.04310592 20.6781021 -0.03017704 24.72360158 -0.01050687 C28.95782182 0.00588247 33.1920004 -0.00293351 37.42623901 -0.00802612 C44.53560415 -0.01254628 51.64470611 0.00331903 58.75401306 0.03126526 C66.97425145 0.06332925 75.19401551 0.06329649 83.41428763 0.04605049 C91.32247051 0.03019025 99.23047944 0.03691488 107.13865471 0.0539875 C110.50423753 0.06086141 113.86968104 0.05982216 117.23526192 0.05244255 C121.19743639 0.04478464 125.15907057 0.05688899 129.12115288 0.08429146 C130.57559988 0.09118121 132.0300973 0.09126688 133.48454285 0.08407593 C135.46878581 0.07539556 137.45309237 0.09375799 139.43725586 0.11352539 C140.54797486 0.11633231 141.65869387 0.11913923 142.80307102 0.12203121 C146.32694416 0.7474153 147.485793 1.8334284 149.65513611 4.62818909 C150.80209548 8.22199513 150.97145911 9.89565161 149.46763611 13.37818909 C147.51994357 15.79601431 146.51196249 16.52475264 143.65513611 17.62818909 C140.84992313 17.88545799 140.84992313 17.88545799 137.55114746 17.89561462 C136.29916565 17.90414459 135.04718384 17.91267456 133.75726318 17.92146301 C132.37239062 17.92076401 130.98751816 17.91984096 129.60264587 17.91871643 C128.14220333 17.92470165 126.68176395 17.93150718 125.22132874 17.93907166 C121.25646337 17.956738 117.29168433 17.96142725 113.32678342 17.96270323 C110.0165875 17.96460288 106.70641167 17.97196104 103.39622349 17.97904742 C95.58692814 17.99533081 87.7776789 18.00021636 79.96836853 17.99879456 C71.91236872 17.9975926 63.85663659 18.0187052 55.80070454 18.05028188 C48.88339272 18.07642941 41.96616843 18.08716252 35.04880756 18.08588374 C30.91768193 18.08537372 26.78679426 18.09107877 22.65571785 18.11223984 C18.77076751 18.13159716 14.88628279 18.13176425 11.00131607 18.11720657 C9.57629275 18.11511434 8.15124048 18.11984414 6.72626686 18.13192749 C4.77960613 18.14736438 2.83278683 18.13567993 0.8861084 18.12266541 C-0.2028646 18.12375494 -1.2918376 18.12484447 -2.41380978 18.12596703 C-6.04794255 17.50878595 -7.71676747 16.16078067 -10.34486389 13.62818909 C-11.78917244 10.73957199 -11.72174895 8.83171207 -11.34486389 5.62818909 C-7.81412331 1.21251806 -5.61863 0.00296487 0 0 Z " fill="#3F3CFE" transform="translate(259.34486389160156,163.37181091308594)"/>
<path d="M0 0 C0.88742386 -0.00571014 1.77484772 -0.01142029 2.68916321 -0.01730347 C4.15336197 -0.01898026 4.15336197 -0.01898026 5.6471405 -0.02069092 C6.67327957 -0.02565582 7.69941864 -0.03062073 8.75665283 -0.03573608 C12.16310793 -0.05038265 15.56951646 -0.05716403 18.97599792 -0.06268311 C21.33770754 -0.0684327 23.69941713 -0.07419045 26.06112671 -0.07995605 C31.01851113 -0.09047328 35.9758793 -0.09631116 40.93327332 -0.09979248 C47.28890358 -0.10527734 53.64431963 -0.12930235 59.9998827 -0.15776443 C64.88031646 -0.17637883 69.76069851 -0.18159579 74.64116478 -0.18312836 C76.98434813 -0.18615834 79.32753049 -0.19419844 81.67067909 -0.20731354 C84.94815532 -0.22434792 88.22510685 -0.22249989 91.50260925 -0.21600342 C92.47266907 -0.2252182 93.44272888 -0.23443298 94.44218445 -0.243927 C99.34267516 -0.21346368 102.84850041 -0.15118015 106.76896667 3.14044189 C108.84806857 6.25909474 109.05056042 6.67783711 108.64396667 10.14044189 C108.57951355 10.82106689 108.51506042 11.50169189 108.44865417 12.20294189 C107.50621874 14.88942452 106.16030081 15.6448046 103.76896667 17.14044189 C101.58844852 17.52355194 101.58844852 17.52355194 99.18353271 17.53485107 C98.26811707 17.54620087 97.35270142 17.55755066 96.4095459 17.56924438 C95.41255173 17.56631378 94.41555756 17.56338318 93.38835144 17.56036377 C92.33265961 17.56883331 91.27696777 17.57730286 90.18928528 17.58602905 C86.69619228 17.60944679 83.20353852 17.61042006 79.71037292 17.60919189 C77.28425926 17.61629043 74.85814729 17.62398897 72.43203735 17.63226318 C67.34532505 17.64571891 62.25876798 17.64727173 57.17204285 17.64141846 C50.65035944 17.63552071 44.12942004 17.66611304 37.60788059 17.70653534 C32.59702535 17.73237165 27.58635022 17.73529342 22.57543755 17.73164368 C20.17084317 17.73333865 17.76624081 17.74301718 15.3617115 17.76078796 C12.0002917 17.78289669 8.64039058 17.77331552 5.27897644 17.75567627 C4.2840065 17.76893951 3.28903656 17.78220276 2.26391602 17.79586792 C-2.39268724 17.73902527 -4.53927189 17.66140418 -8.35275269 14.78948975 C-10.23103333 12.14044189 -10.23103333 12.14044189 -10.79353333 9.14044189 C-10.10745676 5.48136685 -8.80369019 3.78876514 -6.23103333 1.14044189 C-3.91424222 -0.01795366 -2.57903787 0.00992027 0 0 Z " fill="#5E39FE" transform="translate(258.2310333251953,209.85955810546875)"/>
<path d="M0 0 C0.86493073 -0.00426498 1.72986145 -0.00852997 2.6210022 -0.01292419 C4.03233681 -0.01224442 4.03233681 -0.01224442 5.47218323 -0.0115509 C6.46935364 -0.01490952 7.46652405 -0.01826813 8.49391174 -0.02172852 C11.79210148 -0.03123197 15.09024042 -0.03318125 18.38844299 -0.03425598 C20.68003358 -0.03746869 22.97162396 -0.04083278 25.26321411 -0.04434204 C30.06741308 -0.05033159 34.87159407 -0.05218209 39.67579651 -0.05158997 C45.83402646 -0.05148829 51.99214125 -0.06514718 58.15034389 -0.08236217 C62.8832248 -0.09347554 67.61607779 -0.09550939 72.34897041 -0.09498024 C74.61957764 -0.0961611 76.89018556 -0.10058879 79.16077995 -0.10831261 C82.33497588 -0.1181001 85.50892083 -0.11523938 88.68312073 -0.10920715 C89.62198624 -0.11482666 90.56085175 -0.12044617 91.52816772 -0.12623596 C96.94871377 -0.1000344 101.24652052 0.05732788 105.51734924 3.75871277 C106.96658512 6.81821074 106.71891223 8.92512829 106.35719299 12.23136902 C105.36679271 14.86702441 104.00913769 15.65150364 101.64234924 17.13371277 C99.44342041 17.51682281 99.44342041 17.51682281 97.01222229 17.52812195 C96.08694733 17.53947174 95.16167236 17.55082153 94.20835876 17.56251526 C92.69648483 17.55811935 92.69648483 17.55811935 91.15406799 17.55363464 C90.0870163 17.56210419 89.0199646 17.57057373 87.920578 17.57929993 C84.39021417 17.60271675 80.86028489 17.60369103 77.32984924 17.60246277 C74.87891972 17.60956083 72.42799187 17.6172593 69.97706604 17.62553406 C64.83907959 17.63898919 59.70124683 17.64054263 54.56324768 17.63468933 C47.97196696 17.62878845 41.38142159 17.65939717 34.7902832 17.69980621 C29.72885652 17.72562526 24.66760834 17.72856593 19.60612488 17.72491455 C17.17558441 17.72661082 14.74503613 17.7363017 12.31455994 17.75405884 C8.91941224 17.77613595 5.525772 17.76660297 2.13063049 17.74894714 C1.12271454 17.76221039 0.11479858 17.77547363 -0.92366028 17.78913879 C-7.71790086 17.70683321 -7.71790086 17.70683321 -10.98191833 14.78276062 C-12.67521494 11.5222256 -12.96214164 9.76065804 -12.35765076 6.13371277 C-9.48179341 1.51179918 -9.48179341 1.51179918 -6.48937893 0.50535107 C-4.28200521 0.12052498 -2.24020769 0.00500982 0 0 Z " fill="#8533FE" transform="translate(260.35765075683594,302.8662872314453)"/>
<path d="M0 0 C2.5 1.5 2.5 1.5 4 4 C4.60758866 7.31411997 4.84473882 8.86664794 4 12 C2.73078918 13.83119202 2.73078918 13.83119202 1.04223633 15.67211914 C0.40573151 16.36782013 -0.23077332 17.06352112 -0.88656616 17.78030396 C-4.6578049 21.74115835 -8.49142287 25.63364928 -12.36328125 29.49609375 C-13.23647507 30.37024429 -14.10966888 31.24439484 -15.00932312 32.14503479 C-16.84100616 33.97739427 -18.67393635 35.80850784 -20.50805664 37.63842773 C-22.3884643 39.51523402 -24.26746483 41.39330548 -26.14379883 43.27416992 C-28.86013205 45.99665351 -31.57987311 48.71568323 -34.30078125 51.43359375 C-35.14345047 52.2782872 -35.98611969 53.12298065 -36.85432434 53.99327087 C-38.0214521 55.15567039 -38.0214521 55.15567039 -39.2121582 56.34155273 C-40.23971977 57.36792091 -40.23971977 57.36792091 -41.28804016 58.4150238 C-43.90296813 60.83599099 -46.29825052 61.66693223 -49.90234375 61.578125 C-54.31306594 60.36250697 -57.32658749 56.70483331 -60.47265625 53.53759766 C-62.20522718 51.79339502 -63.96144876 50.07474285 -65.71875 48.35546875 C-68.21906509 45.89347387 -70.71552786 43.42799375 -73.19140625 40.94140625 C-73.70904541 40.42263916 -74.22668457 39.90387207 -74.76000977 39.36938477 C-77.34582159 36.51374024 -77.34496972 33.74848577 -77.26953125 29.9765625 C-77 28 -77 28 -75.5 25.5 C-72.68551675 23.81131005 -70.43411956 23.24890839 -67.140625 23.42578125 C-62.81158062 24.5870395 -60.04456862 27.86760729 -57 31 C-56.2471875 31.74121094 -55.494375 32.48242188 -54.71875 33.24609375 C-52.79412336 35.1470014 -50.89000072 37.06475991 -49 39 C-44.82741081 37.36312397 -42.03574927 34.30669032 -38.94921875 31.1796875 C-38.37218704 30.60219757 -37.79515533 30.02470764 -37.20063782 29.42971802 C-35.98042338 28.20648633 -34.76263649 26.98082895 -33.54711914 25.75292969 C-31.7095724 23.89728973 -29.86431462 22.04961463 -28.01757812 20.203125 C-22.60613403 14.77415745 -17.23335475 9.37018493 -12.34301758 3.45751953 C-8.76446089 -0.42613497 -4.98375869 -0.78215931 0 0 Z " fill="#9332FE" transform="translate(476,332)"/>
</svg>
