<?xml version="1.0" encoding="UTF-8"?>
<svg version="1.1" xmlns="http://www.w3.org/2000/svg" width="512" height="512">
<path d="M0 0 C1.03689289 -0.00835666 2.07378579 -0.01671332 3.14209968 -0.02532321 C6.58580197 -0.04814017 10.02884632 -0.04270603 13.47261047 -0.0370636 C15.95383921 -0.04740418 18.43506153 -0.05939516 20.91627502 -0.07290649 C26.93673204 -0.10066847 32.95693431 -0.10955968 38.97743281 -0.10833099 C43.87176473 -0.10749627 48.7660439 -0.11338513 53.66036415 -0.12395668 C69.06609153 -0.15658516 84.47165619 -0.16563378 99.87741307 -0.15686695 C112.01884704 -0.15087915 124.15987795 -0.1813239 136.30121138 -0.22848966 C148.78600838 -0.27660968 161.27061126 -0.29866382 173.755503 -0.29317886 C180.75781915 -0.29060503 187.75974853 -0.2985419 194.76198387 -0.3342495 C201.34252707 -0.36754484 207.92235879 -0.36442828 214.50297546 -0.33680534 C216.91685628 -0.33234438 219.3307933 -0.3398242 221.74459267 -0.36014938 C225.04183141 -0.38603242 228.33614347 -0.36869601 231.63330078 -0.34057617 C232.58690465 -0.35823758 233.54050852 -0.37589899 234.52300948 -0.3940956 C240.82956774 -0.2779135 243.96738608 1.29374353 248.43985218 5.7345286 C249.27458194 6.62235731 249.27458194 6.62235731 250.12617493 7.52812195 C250.91908904 8.27950849 251.71200315 9.03089502 252.52894497 9.80505085 C253.1913371 10.46706595 253.85372923 11.12908106 254.53619385 11.81115723 C255.31143402 12.58357758 256.08667419 13.35599792 256.88540649 14.15182495 C258.11628242 15.38573723 258.11628242 15.38573723 259.37202454 16.64457703 C260.25916138 17.52996155 261.14629822 18.41534607 262.06031799 19.32756042 C264.46874108 21.73236192 266.87492564 24.13935839 269.27994227 26.54756379 C271.80437559 29.07454584 274.331267 31.59906805 276.85775757 34.12399292 C281.0916875 38.35611046 285.32351955 42.59031712 289.55415344 46.82572937 C294.4466135 51.72365139 299.34269401 56.61793219 304.24062914 61.51037866 C308.45407645 65.71929342 312.66557889 69.93014679 316.87545019 74.14263839 C319.38664547 76.65539294 321.89851232 79.16746615 324.41213799 81.67778969 C327.20631645 84.46855248 329.99641089 87.26337581 332.78608704 90.05863953 C333.62084061 90.89136887 334.45559418 91.72409821 335.31564331 92.58206177 C336.44889542 93.71954361 336.44889542 93.71954361 337.6050415 94.88000488 C338.26479445 95.54013486 338.92454741 96.20026484 339.60429287 96.88039875 C342.61240074 100.13724056 342.23208596 102.68811623 342.19018555 107.01679993 C342.18277563 108.02770095 342.18277563 108.02770095 342.17521602 109.05902421 C342.16379748 110.54042989 342.15005906 112.02181899 342.13434029 113.50318527 C342.09990456 116.75704522 342.07656884 120.01096094 342.0523535 123.26491046 C342.03916466 125.01782698 342.02537803 126.77073909 342.01104009 128.52364659 C341.92050767 139.76699604 341.90245192 151.01056466 341.88011301 162.25422025 C341.85777666 173.20727854 341.812962 184.15910627 341.69770813 195.11161804 C341.60633938 203.80712951 341.56439773 212.50128462 341.58057338 221.1972841 C341.58730439 225.79972504 341.56919859 230.3990376 341.49132347 235.00088882 C341.41859887 239.33448 341.41172308 243.66326575 341.45455933 247.99720764 C341.45871794 249.58395611 341.43906883 251.17098023 341.39338112 252.75707626 C341.26158548 257.61204729 341.36778671 261.92449516 343.12617493 266.52812195 C347.00045691 270.46704843 352.13807861 272.38122592 357.12617493 274.52812195 C359.72161894 276.2135781 362.11255399 278.06385648 364.50117493 280.02812195 C365.08294495 280.49895203 365.66471497 280.9697821 366.26411438 281.45487976 C384.47004975 296.36936095 396.38009022 316.06672626 403.12617493 338.52812195 C403.60570618 340.0885321 403.60570618 340.0885321 404.09492493 341.6804657 C408.85720666 360.57525944 408.13352071 382.99404296 402.12617493 401.52812195 C401.80471497 402.55050964 401.80471497 402.55050964 401.47676086 403.59355164 C396.89415551 417.82164073 389.93903916 430.21424597 380.12617493 441.52812195 C379.46230774 442.33636414 378.79844055 443.14460632 378.11445618 443.9773407 C366.06292817 458.16740232 350.01160937 468.59293633 332.56367493 474.90312195 C331.94065491 475.12975525 331.31763489 475.35638855 330.67573547 475.58988953 C319.06841306 479.49720315 307.43900676 480.97717096 295.24794006 480.915802 C293.28025221 480.92388031 293.28025221 480.92388031 291.27281308 480.93212181 C287.67936299 480.94641597 284.08614536 480.94238286 280.49268341 480.934955 C276.59901859 480.93018564 272.70540139 480.9427658 268.81175232 480.95297241 C261.20403307 480.97008952 253.59639666 480.97101565 245.98866317 480.96575951 C239.80346623 480.96170518 233.61829363 480.96317628 227.43309784 480.96850777 C226.55019054 480.96925619 225.66728325 480.97000461 224.75762118 480.97077571 C222.96362723 480.97230729 221.16963329 480.97384564 219.37563935 480.97539068 C202.58859009 480.98908873 185.80158756 480.98369585 169.01453939 480.97220547 C153.67134409 480.96226432 138.32826923 480.97523377 122.98509249 480.99913966 C107.20392879 481.02354164 91.42282117 481.03313654 75.64163899 481.02648693 C66.79219763 481.02299865 57.94284898 481.02520156 49.09342194 481.04273796 C41.56478055 481.0574732 34.03629726 481.05807753 26.50765893 481.04066705 C22.67023796 481.03216771 18.83309929 481.02998143 14.99569321 481.0453186 C10.82905945 481.06176521 6.66310395 481.04699025 2.49647522 481.02932739 C1.29364482 481.0389324 0.09081441 481.04853741 -1.14846539 481.05843347 C-12.93649784 480.95581012 -22.28231504 477.72984702 -30.87382507 469.52812195 C-41.31300854 458.59281888 -42.46609587 446.84219084 -42.38175964 432.41044617 C-42.38637432 430.68462029 -42.39273104 428.95879834 -42.40066862 427.23298454 C-42.41730716 422.51310826 -42.40914055 417.7935571 -42.39672375 413.07367992 C-42.38765311 407.97475207 -42.40165297 402.87587913 -42.41264343 397.77696228 C-42.43041174 387.79709056 -42.42659617 377.81733931 -42.41499287 367.8374629 C-42.40595219 359.72520428 -42.4047373 351.61297938 -42.40908813 343.50071716 C-42.40970107 342.34528251 -42.410314 341.18984785 -42.4109455 339.99940002 C-42.41222443 337.65201393 -42.41352128 335.30462785 -42.41483587 332.95724177 C-42.42623673 310.95585213 -42.4131357 288.95452921 -42.3916344 266.95315051 C-42.37376389 248.0829253 -42.37686814 229.21279851 -42.39530945 210.34257507 C-42.41672487 188.41886589 -42.42513813 166.49521515 -42.41286039 144.57149696 C-42.41158622 142.23284023 -42.41032874 139.89418349 -42.40908813 137.55552673 C-42.40847103 136.40492134 -42.40785393 135.25431595 -42.40721813 134.06884372 C-42.40376725 125.96815834 -42.40958793 117.86751008 -42.41900635 109.76683044 C-42.43023515 99.89217947 -42.42716767 90.01765565 -42.40588337 80.1430192 C-42.39538491 75.10669616 -42.39123069 70.07058499 -42.40447998 65.03426361 C-42.41643451 60.42025772 -42.40979093 55.80665928 -42.38856977 51.19269013 C-42.38411667 49.52729323 -42.38634081 47.86186161 -42.39607292 46.19648719 C-42.46941366 32.59891923 -40.59268945 21.70887295 -30.87382507 11.52812195 C-21.98759594 3.04504876 -12.12353874 -0.08804184 0 0 Z M-20.12382507 25.96562195 C-25.40578248 32.44739735 -25.99768939 39.30839416 -26.00245953 47.48821735 C-26.00421256 48.16779353 -26.0059656 48.8473697 -26.00777176 49.54753909 C-26.01242132 51.82325784 -26.00996895 54.0989124 -26.00753784 56.37463379 C-26.00940634 58.02331856 -26.0117072 59.67200289 -26.01440316 61.32068652 C-26.02052277 65.85038948 -26.02038738 70.38007399 -26.01920879 74.90978014 C-26.01900482 79.79537594 -26.02452314 84.6809658 -26.02926636 89.56655884 C-26.03757431 99.1379966 -26.04032126 108.70942821 -26.04087874 118.28086928 C-26.04135382 126.06049423 -26.04340818 133.84011714 -26.04657936 141.61974144 C-26.05538626 163.67371397 -26.05999867 185.72768164 -26.05924889 207.78165594 C-26.05920893 208.97069725 -26.05916897 210.15973855 -26.05912781 211.3848114 C-26.05908693 212.57530351 -26.05904605 213.76579561 -26.05900393 214.99236324 C-26.05859743 234.28849155 -26.0681679 253.58460036 -26.08226617 272.88072304 C-26.09662612 292.69120523 -26.10353657 312.50167791 -26.1026724 332.31216544 C-26.1023403 343.43530996 -26.10509298 354.55843403 -26.11585045 365.68157387 C-26.12495041 375.1515934 -26.12713483 384.62158321 -26.12034103 394.09160522 C-26.11707331 398.92304343 -26.11702826 403.75442459 -26.12569427 408.58585739 C-26.13354899 413.01048509 -26.13213834 417.43501039 -26.12341014 421.85963555 C-26.12187289 423.4585295 -26.12369979 425.05743104 -26.12927022 426.65631602 C-26.46173339 442.05192445 -26.46173339 442.05192445 -19.87382507 455.52812195 C-11.59804673 463.74478759 -3.48616635 464.68489533 7.80717468 464.64837646 C8.77601959 464.64923089 9.74486449 464.65008531 10.74306834 464.65096563 C13.98586102 464.65261128 17.22860186 464.64711401 20.47138977 464.64164734 C22.79736836 464.64136524 25.12334703 464.64152364 27.44932556 464.64208984 C33.76282629 464.64237695 40.07630805 464.63649422 46.38980436 464.62951589 C52.31966263 464.62390093 58.24952016 464.62289275 64.17938073 464.62186401 C75.92255399 464.61967683 87.66572029 464.61302578 99.40888977 464.6035614 C110.81448838 464.59437866 122.22008509 464.58730204 133.62568665 464.58305359 C134.32904126 464.58279087 135.03239588 464.58252814 135.75706427 464.58225746 C139.28568127 464.58095239 142.81429828 464.57968869 146.3429153 464.57844555 C175.60400637 464.56808333 204.86509055 464.5503996 234.12617493 464.52812195 C231.53345724 461.90062308 228.95866761 459.55055652 226.00117493 457.34062195 C203.73340772 440.10223588 188.46318283 416.05233166 183.55976868 388.0632782 C179.95511857 356.87457756 185.44450176 325.38599236 205.06367493 300.27812195 C206.40665301 298.68528747 207.76087469 297.10186496 209.12617493 295.52812195 C209.80164368 294.7082782 210.47711243 293.88843445 211.17304993 293.04374695 C226.93519789 274.52034679 252.2973932 260.50702601 276.6139679 257.72294617 C282.40283033 257.27401398 288.1972782 257.20140133 294.00117493 257.15312195 C295.23069885 257.13902283 296.46022278 257.12492371 297.727005 257.11039734 C307.74535991 257.16256595 315.93566095 258.72979595 326.12617493 260.52812195 C326.12617493 211.68812195 326.12617493 162.84812195 326.12617493 112.52812195 C293.95117493 112.03312195 293.95117493 112.03312195 261.12617493 111.52812195 C248.58157774 106.96645025 240.41385787 102.28902113 234.12617493 90.52812195 C230.54964121 82.72677782 230.65181508 74.8702573 230.61445618 66.4304657 C230.59758107 64.98599754 230.57942708 63.54154381 230.56005859 62.09710693 C230.51285918 58.3243206 230.48285669 54.55159279 230.45661926 50.77861023 C230.42666062 46.91700181 230.38018352 43.05559452 230.3351593 39.19413757 C230.24946898 31.6388995 230.1819729 24.08364625 230.12617493 16.52812195 C200.72395058 16.48247018 171.32172874 16.44708887 141.91947618 16.42599129 C138.44613938 16.42348996 134.97280264 16.4209013 131.49946594 16.41825867 C130.80800411 16.41773405 130.11654228 16.41720943 129.40412705 16.41666891 C118.21663891 16.40797271 107.02917137 16.39220707 95.84169544 16.37381636 C84.35733611 16.35509544 72.87299127 16.34415023 61.38861698 16.33994496 C54.94012394 16.33733818 48.49167761 16.33121341 42.04319954 16.31666183 C35.9718753 16.30307253 29.90061695 16.29890207 23.82927895 16.30190659 C21.60288891 16.30135703 19.37649665 16.29738767 17.15011978 16.289711 C14.10536035 16.27972874 11.06084818 16.28216512 8.01608276 16.28761292 C7.13959833 16.28178723 6.2631139 16.27596155 5.36006933 16.26995933 C-4.98472954 16.31982693 -12.95864764 18.02349756 -20.12382507 25.96562195 Z M246.12617493 29.52812195 C246.07646197 35.48717556 246.04030783 41.44610644 246.01631165 47.40531921 C246.00630009 49.42942917 245.99268683 51.45352483 245.97529602 53.47758484 C245.95083352 56.39941451 245.93964309 59.32105172 245.93086243 62.2429657 C245.92053986 63.13708664 245.91021729 64.03120758 245.89958191 64.9524231 C245.89811197 73.3228778 246.65535847 80.87442626 252.12617493 87.52812195 C259.68851162 95.03644195 266.87408357 96.64233911 277.36198425 96.64141846 C278.27158905 96.63625717 279.18119385 96.63109589 280.11836243 96.6257782 C281.06430267 96.62436325 282.01024292 96.6229483 282.98484802 96.62149048 C285.99032321 96.61591679 288.99572245 96.60336915 292.00117493 96.59062195 C294.04544468 96.58560355 296.08971561 96.58104124 298.13398743 96.57695007 C303.13141229 96.56595598 308.12878075 96.54870951 313.12617493 96.52812195 C309.25016757 91.89423061 305.23210668 87.48855634 300.95307922 83.22563171 C300.36859512 82.63939529 299.78411102 82.05315887 299.18191528 81.44915771 C297.2738939 79.53677976 295.36229202 77.62802956 293.45039368 75.7195282 C292.1160038 74.38446405 290.78176234 73.04925153 289.44766235 71.71389771 C286.66463078 68.92939805 283.8798137 66.14670002 281.09370422 63.36528015 C277.51450889 59.79181497 273.93986632 56.21383428 270.36651897 52.63452244 C267.61894697 49.88334912 264.86901293 47.13454679 262.11834145 44.3864727 C260.79823624 43.06703624 259.47887804 41.74685196 258.16026878 40.42592049 C256.32667906 38.58980773 254.4899435 36.75690277 252.65229797 34.92485046 C252.10427521 34.37480347 251.55625244 33.82475647 250.99162292 33.25804138 C248.90916599 30.68513123 248.90916599 30.68513123 246.12617493 29.52812195 Z M230.12617493 297.52812195 C229.20320618 298.35956726 228.28023743 299.19101257 227.32929993 300.0476532 C209.80861722 316.57614255 198.9860642 340.77183749 198.05976868 364.8835907 C198.52203678 390.25395179 205.57600654 413.6439036 223.12617493 432.52812195 C223.93054993 433.40081726 224.73492493 434.27351257 225.56367493 435.1726532 C243.50246058 453.86823137 267.022291 463.33158373 292.65937805 464.4851532 C316.80294065 464.90570615 340.45488068 455.95105161 358.12617493 439.52812195 C358.99887024 438.72374695 359.87156555 437.91937195 360.77070618 437.09062195 C377.1320615 421.39157037 388.87461926 398.85516042 389.36445618 375.8523407 C389.81306036 348.96450822 383.79494248 323.99617862 364.68159485 304.0801239 C363.17495182 302.55042121 361.6523055 301.03834464 360.12617493 299.52812195 C359.32437805 298.70441101 358.52258118 297.88070007 357.69648743 297.0320282 C323.16730691 263.49105655 264.58088931 265.5571063 230.12617493 297.52812195 Z " fill="#8D86C0" transform="translate(73.87382507324219,15.471878051757813)"/>
<path d="M0 0 C0.81730591 -0.00623996 1.63461182 -0.01247993 2.47668457 -0.01890898 C5.21912364 -0.03488145 7.96067912 -0.02221833 10.703125 -0.00964355 C12.66764851 -0.01506279 14.63216796 -0.02218433 16.59667969 -0.03088379 C21.93548516 -0.04914366 27.27398199 -0.04203856 32.61279297 -0.02936745 C38.19499556 -0.01925361 43.77717139 -0.02862863 49.359375 -0.03491211 C58.73442336 -0.04219322 68.10934576 -0.03258861 77.484375 -0.0135498 C88.32944839 0.00821976 99.17422101 0.00116873 110.01928711 -0.02085543 C119.32383808 -0.03899618 128.6282984 -0.04157422 137.93286133 -0.03110075 C143.49305147 -0.02485855 149.05310015 -0.02405019 154.61328125 -0.0372467 C159.84019072 -0.04878526 165.06671169 -0.04081586 170.2935791 -0.01766968 C172.21406407 -0.01237193 174.13458162 -0.01391451 176.05505371 -0.02272034 C178.67256338 -0.03361744 181.2888206 -0.01998354 183.90625 0 C184.67005981 -0.00892289 185.43386963 -0.01784577 186.2208252 -0.02703905 C189.72920403 0.0250787 191.60700097 0.24071042 194.42285156 2.41468048 C196.08201542 4.6842432 196.49652044 5.73062638 196.453125 8.50793457 C196.46859375 9.49793457 196.46859375 9.49793457 196.484375 10.50793457 C195.68382904 13.52175464 194.41998962 14.60339822 191.953125 16.50793457 C189.13996946 16.90078958 186.71824237 17.04871906 183.90625 17.01586914 C183.08894409 17.0221091 182.27163818 17.02834907 181.42956543 17.03477812 C178.68712636 17.05075059 175.94557088 17.03808747 173.203125 17.0255127 C171.23860149 17.03093193 169.27408204 17.03805347 167.30957031 17.04675293 C161.97076484 17.0650128 156.63226801 17.0579077 151.29345703 17.04523659 C145.71125444 17.03512275 140.12907861 17.04449777 134.546875 17.05078125 C125.17182664 17.05806236 115.79690424 17.04845775 106.421875 17.02941895 C95.57680161 17.00764938 84.73202899 17.01470041 73.88696289 17.03672457 C64.58241192 17.05486532 55.2779516 17.05744336 45.97338867 17.04696989 C40.41319853 17.04072769 34.85314985 17.03991933 29.29296875 17.05311584 C24.06605928 17.0646544 18.83953831 17.056685 13.6126709 17.03353882 C11.69218593 17.02824107 9.77166838 17.02978365 7.85119629 17.03858948 C5.23368662 17.04948658 2.6174294 17.03585268 0 17.01586914 C-0.76380981 17.02479203 -1.52761963 17.03371491 -2.3145752 17.04290819 C-5.82295403 16.99079044 -7.70075097 16.77515872 -10.51660156 14.60118866 C-12.17576542 12.33162595 -12.59027044 11.28524276 -12.546875 8.50793457 C-12.56234375 7.51793457 -12.56234375 7.51793457 -12.578125 6.50793457 C-10.87400916 0.09243966 -5.70152359 -0.06660565 0 0 Z " fill="#D664B6" transform="translate(172.046875,159.4920654296875)"/>
<path d="M0 0 C1.02994835 -0.00935994 1.02994835 -0.00935994 2.08070374 -0.01890898 C4.38097496 -0.03486111 6.68018972 -0.02222711 8.98046875 -0.00964355 C10.62972634 -0.01506373 12.27897909 -0.0221858 13.92822266 -0.03088379 C18.40757091 -0.04913268 22.886551 -0.04204323 27.36590576 -0.02936745 C32.05123901 -0.01924786 36.73654052 -0.02863023 41.421875 -0.03491211 C49.29042222 -0.04219156 57.15881932 -0.03259303 65.02734375 -0.0135498 C74.12742646 0.00821953 83.22715071 0.00116837 92.32722473 -0.02085543 C100.13710094 -0.03900097 107.94686917 -0.0415719 115.75675964 -0.03110075 C120.42269772 -0.02486116 125.08846725 -0.02404295 129.75439453 -0.0372467 C134.14085692 -0.04879232 138.52685669 -0.0408033 142.91326904 -0.01766968 C144.52414176 -0.01237565 146.13505333 -0.01390823 147.74591064 -0.02272034 C149.94311376 -0.03363283 152.13882949 -0.01996683 154.3359375 0 C156.18094849 0.00226215 156.18094849 0.00226215 158.06323242 0.00457001 C161.74951554 0.60221956 162.92356627 1.58295559 165.16796875 4.50793457 C165.69921875 6.50793457 165.69921875 6.50793457 165.66796875 8.50793457 C165.6834375 9.49793457 165.6834375 9.49793457 165.69921875 10.50793457 C164.91138424 13.47389977 163.55732468 14.60472758 161.16796875 16.50793457 C158.06323242 17.01129913 158.06323242 17.01129913 154.3359375 17.01586914 C153.64930527 17.0221091 152.96267303 17.02834907 152.25523376 17.03477812 C149.95496254 17.05073025 147.65574778 17.03809625 145.35546875 17.0255127 C143.70621116 17.03093287 142.05695841 17.03805494 140.40771484 17.04675293 C135.92836659 17.06500182 131.4493865 17.05791237 126.97003174 17.04523659 C122.28469849 17.035117 117.59939698 17.04449937 112.9140625 17.05078125 C105.04551528 17.0580607 97.17711818 17.04846217 89.30859375 17.02941895 C80.20851104 17.00764961 71.10878679 17.01470078 62.00871277 17.03672457 C54.19883656 17.05487011 46.38906833 17.05744104 38.57917786 17.04696989 C33.91323978 17.0407303 29.24747025 17.03991209 24.58154297 17.05311584 C20.19508058 17.06466146 15.80908081 17.05667244 11.42266846 17.03353882 C9.81179574 17.02824479 8.20088417 17.02977737 6.59002686 17.03858948 C4.39282374 17.04950197 2.19710801 17.03583597 0 17.01586914 C-1.84501099 17.01360699 -1.84501099 17.01360699 -3.72729492 17.01129913 C-7.41357804 16.41364958 -8.58762877 15.43291355 -10.83203125 12.50793457 C-11.36328125 10.50793457 -11.36328125 10.50793457 -11.33203125 8.50793457 C-11.3475 7.51793457 -11.3475 7.51793457 -11.36328125 6.50793457 C-9.79278824 0.59549028 -5.4395476 0.00666939 0 0 Z " fill="#CC6BD3" transform="translate(90.83203125,207.4920654296875)"/>
<path d="M0 0 C1.27866943 -0.0112793 2.55733887 -0.02255859 3.87475586 -0.03417969 C5.28955305 -0.02640266 6.704348 -0.01821 8.11914062 -0.00964355 C9.61076542 -0.01506435 11.10238485 -0.02218677 12.59399414 -0.03088379 C16.6436169 -0.04912547 20.69283223 -0.04204633 24.74246216 -0.02936745 C28.97936099 -0.01924407 33.21622481 -0.02863128 37.453125 -0.03491211 C44.56842312 -0.04219046 51.68355521 -0.03259594 58.79882812 -0.0135498 C67.02641862 0.00821938 75.25361265 0.00116814 83.48119354 -0.02085543 C90.54373317 -0.03900413 97.6061534 -0.04157037 104.6687088 -0.03110075 C108.88752237 -0.02486287 113.10614956 -0.02403817 117.32495117 -0.0372467 C121.29119435 -0.04879699 125.25692611 -0.04079505 129.22311401 -0.01766968 C130.6791804 -0.01237811 132.1352898 -0.01390409 133.59133911 -0.02272034 C135.57780425 -0.03363977 137.56436338 -0.01752243 139.55078125 0 C141.21880798 0.00226215 141.21880798 0.00226215 142.92053223 0.00457001 C146.42748135 0.62291028 147.6037293 1.74310328 149.77539062 4.50793457 C150.30664062 6.50793457 150.30664062 6.50793457 150.27539062 8.50793457 C150.29085937 9.49793457 150.29085937 9.49793457 150.30664062 10.50793457 C149.52474835 13.45152901 148.12782438 14.6039415 145.77539062 16.50793457 C142.92053223 17.01129913 142.92053223 17.01129913 139.55078125 17.01586914 C138.27211182 17.02714844 136.99344238 17.03842773 135.67602539 17.05004883 C134.2612282 17.0422718 132.84643325 17.03407914 131.43164062 17.0255127 C129.94001583 17.03093349 128.4483964 17.03805591 126.95678711 17.04675293 C122.90716435 17.06499461 118.85794902 17.05791547 114.80831909 17.04523659 C110.57142026 17.03511321 106.33455644 17.04450042 102.09765625 17.05078125 C94.98235813 17.0580596 87.86722604 17.04846509 80.75195312 17.02941895 C72.52436263 17.00764976 64.2971686 17.014701 56.06958771 17.03672457 C49.00704808 17.05487327 41.94462785 17.05743951 34.88207245 17.04696989 C30.66325888 17.04073201 26.44463169 17.03990731 22.22583008 17.05311584 C18.2595869 17.06466613 14.29385514 17.05666419 10.32766724 17.03353882 C8.87160085 17.02824725 7.41549145 17.02977323 5.95944214 17.03858948 C3.972977 17.04950891 1.98641787 17.03339157 0 17.01586914 C-1.66802673 17.01360699 -1.66802673 17.01360699 -3.36975098 17.01129913 C-6.8767001 16.39295886 -8.05294805 15.27276586 -10.22460938 12.50793457 C-10.75585938 10.50793457 -10.75585938 10.50793457 -10.72460938 8.50793457 C-10.74007812 7.51793457 -10.74007812 7.51793457 -10.75585938 6.50793457 C-9.2677065 0.9054767 -5.22342768 0.00708394 0 0 Z " fill="#8B8AEB" transform="translate(90.224609375,303.4920654296875)"/>
<path d="M0 0 C1.00853027 -0.00700928 2.01706055 -0.01401855 3.05615234 -0.02124023 C6.39188114 -0.03885406 9.72676248 -0.02718497 13.0625 -0.01367188 C15.37890791 -0.0163658 17.69531472 -0.02024739 20.01171875 -0.02526855 C24.86729698 -0.03116822 29.72258096 -0.02258526 34.578125 -0.00390625 C40.80614646 0.01888316 47.03347845 0.00576265 53.26147461 -0.01819611 C58.04497485 -0.0326412 62.82831127 -0.02805393 67.61181641 -0.01768494 C69.90836671 -0.0150141 72.20493183 -0.01829988 74.50146484 -0.02760315 C77.7097114 -0.03774714 80.91683706 -0.02229671 84.125 0 C85.55271729 -0.01214539 85.55271729 -0.01214539 87.00927734 -0.02453613 C93.43945009 0.05837271 93.43945009 0.05837271 96.65039062 2.42492676 C98.17562415 4.68522053 98.60471773 5.81564333 98.5625 8.51757812 C98.57796875 9.50757813 98.57796875 9.50757813 98.59375 10.51757812 C97.77143622 13.61334764 96.65975504 14.60332765 94.0625 16.51757812 C90.75626211 17.12830568 87.47912473 17.06368931 84.125 17.03515625 C83.11646973 17.04216553 82.10793945 17.0491748 81.06884766 17.05639648 C77.73311886 17.07401031 74.39823752 17.06234122 71.0625 17.04882812 C68.74609209 17.05152205 66.42968528 17.05540364 64.11328125 17.0604248 C59.25770302 17.06632447 54.40241904 17.05774151 49.546875 17.0390625 C43.31885354 17.01627309 37.09152155 17.0293936 30.86352539 17.05335236 C26.08002515 17.06779745 21.29668873 17.06321018 16.51318359 17.05284119 C14.21663329 17.05017035 11.92006817 17.05345613 9.62353516 17.0627594 C6.4152886 17.07290339 3.20816294 17.05745296 0 17.03515625 C-0.95181152 17.04325317 -1.90362305 17.0513501 -2.88427734 17.05969238 C-9.31445009 16.97678354 -9.31445009 16.97678354 -12.52539062 14.61022949 C-14.05062415 12.34993572 -14.47971773 11.21951292 -14.4375 8.51757812 C-14.45296875 7.52757812 -14.45296875 7.52757812 -14.46875 6.51757812 C-12.53367962 -0.76739273 -6.18858895 -0.05264544 0 0 Z " fill="#BC74ED" transform="translate(93.9375,255.482421875)"/>
<path d="M0 0 C1.00853027 -0.00700928 2.01706055 -0.01401855 3.05615234 -0.02124023 C6.39188114 -0.03885406 9.72676248 -0.02718497 13.0625 -0.01367188 C15.37890791 -0.0163658 17.69531472 -0.02024739 20.01171875 -0.02526855 C24.86729698 -0.03116822 29.72258096 -0.02258526 34.578125 -0.00390625 C40.80614646 0.01888316 47.03347845 0.00576265 53.26147461 -0.01819611 C58.04497485 -0.0326412 62.82831127 -0.02805393 67.61181641 -0.01768494 C69.90836671 -0.0150141 72.20493183 -0.01829988 74.50146484 -0.02760315 C77.7097114 -0.03774714 80.91683706 -0.02229671 84.125 0 C85.55271729 -0.01214539 85.55271729 -0.01214539 87.00927734 -0.02453613 C93.43945009 0.05837271 93.43945009 0.05837271 96.65039062 2.42492676 C98.17562415 4.68522053 98.60471773 5.81564333 98.5625 8.51757812 C98.57796875 9.50757812 98.57796875 9.50757812 98.59375 10.51757812 C97.77143622 13.61334764 96.65975504 14.60332765 94.0625 16.51757812 C90.75626211 17.12830568 87.47912473 17.06368931 84.125 17.03515625 C83.11646973 17.04216553 82.10793945 17.0491748 81.06884766 17.05639648 C77.73311886 17.07401031 74.39823752 17.06234122 71.0625 17.04882812 C68.74609209 17.05152205 66.42968528 17.05540364 64.11328125 17.0604248 C59.25770302 17.06632447 54.40241904 17.05774151 49.546875 17.0390625 C43.31885354 17.01627309 37.09152155 17.0293936 30.86352539 17.05335236 C26.08002515 17.06779745 21.29668873 17.06321018 16.51318359 17.05284119 C14.21663329 17.05017035 11.92006817 17.05345613 9.62353516 17.0627594 C6.4152886 17.07290339 3.20816294 17.05745296 0 17.03515625 C-0.95181152 17.04325317 -1.90362305 17.0513501 -2.88427734 17.05969238 C-9.31445009 16.97678354 -9.31445009 16.97678354 -12.52539062 14.61022949 C-14.05062415 12.34993572 -14.47971773 11.21951292 -14.4375 8.51757812 C-14.45296875 7.52757813 -14.45296875 7.52757813 -14.46875 6.51757812 C-12.53367962 -0.76739273 -6.18858895 -0.05264544 0 0 Z " fill="#E05D98" transform="translate(93.9375,111.482421875)"/>
<path d="M0 0 C0.66 -0.0103125 1.32 -0.020625 2 -0.03125 C5.03119371 0.77391083 6.0938408 2.00546283 8 4.5 C8.39455787 7.4478527 8.54732315 10.02177283 8.51757812 12.96875 C8.5245874 13.82122314 8.53159668 14.67369629 8.53881836 15.55200195 C8.55641568 18.3683332 8.5447696 21.18365864 8.53125 24 C8.53394442 25.95768425 8.53782642 27.9153672 8.54284668 29.87304688 C8.54874408 33.97539007 8.54017093 38.07738482 8.52148438 42.1796875 C8.49869475 47.43920628 8.51181653 52.69790864 8.53577423 57.95739746 C8.55022563 61.9997371 8.54562923 66.04188305 8.53526306 70.08422852 C8.53259396 72.02351986 8.53587197 73.96282877 8.54518127 75.90209961 C8.55533602 78.6122905 8.53986128 81.32115775 8.51757812 84.03125 C8.52567505 84.83344971 8.53377197 85.63564941 8.54211426 86.4621582 C8.48724701 90.06262563 8.31076947 92.0933047 6.09265137 94.99609375 C3.82522778 96.62560192 2.76035207 97.0431305 0 97 C-0.66 97.0103125 -1.32 97.020625 -2 97.03125 C-5.03119371 96.22608917 -6.0938408 94.99453717 -8 92.5 C-8.39455787 89.5521473 -8.54732315 86.97822717 -8.51757812 84.03125 C-8.5245874 83.17877686 -8.53159668 82.32630371 -8.53881836 81.44799805 C-8.55641568 78.6316668 -8.5447696 75.81634136 -8.53125 73 C-8.53394442 71.04231575 -8.53782642 69.0846328 -8.54284668 67.12695312 C-8.54874408 63.02460993 -8.54017093 58.92261518 -8.52148438 54.8203125 C-8.49869475 49.56079372 -8.51181653 44.30209136 -8.53577423 39.04260254 C-8.55022563 35.0002629 -8.54562923 30.95811695 -8.53526306 26.91577148 C-8.53259396 24.97648014 -8.53587197 23.03717123 -8.54518127 21.09790039 C-8.55533602 18.3877095 -8.53986128 15.67884225 -8.51757812 12.96875 C-8.52567505 12.16655029 -8.53377197 11.36435059 -8.54211426 10.5378418 C-8.48724701 6.93737437 -8.31076947 4.9066953 -6.09265137 2.00390625 C-3.82522778 0.37439808 -2.76035207 -0.0431305 0 0 Z " fill="#5AA0EA" transform="translate(368,319.5)"/>
<path d="M0 0 C0.85247314 -0.00700928 1.70494629 -0.01401855 2.58325195 -0.02124023 C5.3995832 -0.03883756 8.21490864 -0.02719147 11.03125 -0.01367188 C12.98893425 -0.01636629 14.9466172 -0.02024829 16.90429688 -0.02526855 C21.00664007 -0.03116595 25.10863482 -0.02259281 29.2109375 -0.00390625 C34.47045628 0.01888337 39.72915864 0.00576159 44.98864746 -0.01819611 C49.0309871 -0.03264751 53.07313305 -0.0280511 57.11547852 -0.01768494 C59.05476986 -0.01501583 60.99407877 -0.01829385 62.93334961 -0.02760315 C65.6435405 -0.03775789 68.35240775 -0.02228315 71.0625 0 C71.86469971 -0.00809692 72.66689941 -0.01619385 73.4934082 -0.02453613 C77.09387563 0.03033112 79.1245547 0.20680866 82.02734375 2.42492676 C83.65685192 4.69235034 84.0743805 5.75722605 84.03125 8.51757812 C84.04671875 9.50757813 84.04671875 9.50757813 84.0625 10.51757812 C83.25733917 13.54877184 82.02578717 14.61141893 79.53125 16.51757812 C76.5833973 16.912136 74.00947717 17.06490127 71.0625 17.03515625 C69.78379028 17.04567017 69.78379028 17.04567017 68.47924805 17.05639648 C65.6629168 17.07399381 62.84759136 17.06234772 60.03125 17.04882812 C58.07356575 17.05152254 56.1158828 17.05540454 54.15820312 17.0604248 C50.05585993 17.0663222 45.95386518 17.05774906 41.8515625 17.0390625 C36.59204372 17.01627288 31.33334136 17.02939466 26.07385254 17.05335236 C22.0315129 17.06780376 17.98936695 17.06320735 13.94702148 17.05284119 C12.00773014 17.05017208 10.06842123 17.0534501 8.12915039 17.0627594 C5.4189595 17.07291414 2.71009225 17.0574394 0 17.03515625 C-0.80219971 17.04325317 -1.60439941 17.0513501 -2.4309082 17.05969238 C-6.03137563 17.00482513 -8.0620547 16.82834759 -10.96484375 14.61022949 C-12.59435192 12.34280591 -13.0118805 11.2779302 -12.96875 8.51757812 C-12.98421875 7.52757812 -12.98421875 7.52757812 -13 6.51757812 C-11.24883612 -0.07503884 -5.81974348 -0.05874101 0 0 Z " fill="#CC6BD3" transform="translate(284.46875,207.482421875)"/>
<path d="M0 0 C0.69641602 -0.00700928 1.39283203 -0.01401855 2.11035156 -0.02124023 C4.40730932 -0.03881383 6.70303021 -0.02720107 9 -0.01367188 C10.59896073 -0.01636701 12.19791987 -0.0202496 13.796875 -0.02526855 C17.14599226 -0.03116269 20.49468243 -0.0226038 23.84375 -0.00390625 C28.13478591 0.01888377 32.42482111 0.00576017 36.71582031 -0.01819611 C40.01700366 -0.03265667 43.31795011 -0.02804703 46.61914062 -0.01768494 C48.20117308 -0.01501834 49.78322711 -0.0182851 51.36523438 -0.02760315 C53.57740163 -0.03777366 55.787953 -0.02226378 58 0 C59.8871875 0.00477356 59.8871875 0.00477356 61.8125 0.00964355 C65.55520109 0.60605054 66.73159929 1.54273163 69 4.51757812 C69.53125 6.51757812 69.53125 6.51757812 69.5 8.51757812 C69.51546875 9.50757813 69.51546875 9.50757813 69.53125 10.51757812 C68.74176632 13.48975197 67.39936627 14.61414098 65 16.51757812 C61.8125 17.0255127 61.8125 17.0255127 58 17.03515625 C57.30358398 17.04216553 56.60716797 17.0491748 55.88964844 17.05639648 C53.59269068 17.07397008 51.29696979 17.06235732 49 17.04882812 C47.40103927 17.05152326 45.80208013 17.05540585 44.203125 17.0604248 C40.85400774 17.06631894 37.50531757 17.05776005 34.15625 17.0390625 C29.86521409 17.01627248 25.57517889 17.02939608 21.28417969 17.05335236 C17.98299634 17.06781292 14.68204989 17.06320328 11.38085938 17.05284119 C9.79882692 17.05017459 8.21677289 17.05344135 6.63476562 17.0627594 C4.42259837 17.07292991 2.212047 17.05742003 0 17.03515625 C-1.258125 17.03197388 -2.51625 17.0287915 -3.8125 17.0255127 C-7.55520109 16.42910571 -8.73159929 15.49242462 -11 12.51757812 C-11.53125 10.51757812 -11.53125 10.51757812 -11.5 8.51757812 C-11.51546875 7.52757812 -11.51546875 7.52757812 -11.53125 6.51757812 C-9.93997703 0.52690342 -5.4948528 0.01389899 0 0 Z " fill="#3CAEEA" transform="translate(91,399.482421875)"/>
<path d="M0 0 C0.69641602 -0.00700928 1.39283203 -0.01401855 2.11035156 -0.02124023 C4.40730932 -0.03881383 6.70303021 -0.02720107 9 -0.01367188 C10.59896073 -0.01636701 12.19791987 -0.0202496 13.796875 -0.02526855 C17.14599226 -0.03116269 20.49468243 -0.0226038 23.84375 -0.00390625 C28.13478591 0.01888377 32.42482111 0.00576017 36.71582031 -0.01819611 C40.01700366 -0.03265667 43.31795011 -0.02804703 46.61914062 -0.01768494 C48.20117308 -0.01501834 49.78322711 -0.0182851 51.36523438 -0.02760315 C53.57740163 -0.03777366 55.787953 -0.02226378 58 0 C59.8871875 0.00477356 59.8871875 0.00477356 61.8125 0.00964355 C65.55520109 0.60605054 66.73159929 1.54273163 69 4.51757812 C69.53125 6.51757812 69.53125 6.51757812 69.5 8.51757812 C69.51546875 9.50757813 69.51546875 9.50757813 69.53125 10.51757812 C68.74176632 13.48975197 67.39936627 14.61414098 65 16.51757812 C61.8125 17.0255127 61.8125 17.0255127 58 17.03515625 C57.30358398 17.04216553 56.60716797 17.0491748 55.88964844 17.05639648 C53.59269068 17.07397008 51.29696979 17.06235732 49 17.04882812 C47.40103927 17.05152326 45.80208013 17.05540585 44.203125 17.0604248 C40.85400774 17.06631894 37.50531757 17.05776005 34.15625 17.0390625 C29.86521409 17.01627248 25.57517889 17.02939608 21.28417969 17.05335236 C17.98299634 17.06781292 14.68204989 17.06320328 11.38085938 17.05284119 C9.79882692 17.05017459 8.21677289 17.05344135 6.63476562 17.0627594 C4.42259837 17.07292991 2.212047 17.05742003 0 17.03515625 C-1.258125 17.03197388 -2.51625 17.0287915 -3.8125 17.0255127 C-7.55520109 16.42910571 -8.73159929 15.49242462 -11 12.51757812 C-11.53125 10.51757812 -11.53125 10.51757812 -11.5 8.51757812 C-11.51546875 7.52757812 -11.51546875 7.52757812 -11.53125 6.51757812 C-9.93997703 0.52690342 -5.4948528 0.01389899 0 0 Z " fill="#BC74ED" transform="translate(219,255.482421875)"/>
<path d="M0 0 C1.10794922 -0.01260864 2.21589844 -0.02521729 3.35742188 -0.03820801 C4.54916016 -0.03011108 5.74089844 -0.02201416 6.96875 -0.01367188 C8.19658203 -0.01749878 9.42441406 -0.02132568 10.68945312 -0.02526855 C13.28516459 -0.02799029 15.88090336 -0.02061099 18.4765625 -0.00390625 C22.45374599 0.01749738 26.42912282 -0.0037015 30.40625 -0.02929688 C32.92708733 -0.02665365 35.44792353 -0.02152878 37.96875 -0.01367188 C39.16048828 -0.0217688 40.35222656 -0.02986572 41.58007812 -0.03820801 C43.24200195 -0.01929504 43.24200195 -0.01929504 44.9375 0 C45.91138672 0.00318237 46.88527344 0.00636475 47.88867188 0.00964355 C51.19021681 0.65961178 52.38452655 1.93295409 54.46875 4.51757812 C55 6.51757812 55 6.51757812 54.96875 8.51757812 C54.98421875 9.50757813 54.98421875 9.50757813 55 10.51757812 C54.2245785 13.43681202 52.78007479 14.6111988 50.46875 16.51757812 C47.88867188 17.0255127 47.88867188 17.0255127 44.9375 17.03515625 C43.82955078 17.04776489 42.72160156 17.06037354 41.58007812 17.07336426 C40.38833984 17.06526733 39.19660156 17.05717041 37.96875 17.04882812 C36.12700195 17.05456848 36.12700195 17.05456848 34.24804688 17.0604248 C31.65233541 17.06314654 29.05659664 17.05576724 26.4609375 17.0390625 C22.48375401 17.01765887 18.50837718 17.03885775 14.53125 17.06445312 C12.01041267 17.0618099 9.48957647 17.05668503 6.96875 17.04882812 C5.77701172 17.05692505 4.58527344 17.06502197 3.35742188 17.07336426 C1.69549805 17.05445129 1.69549805 17.05445129 0 17.03515625 C-0.97388672 17.03197388 -1.94777344 17.0287915 -2.95117188 17.0255127 C-6.25271681 16.37554447 -7.44702655 15.10220216 -9.53125 12.51757812 C-10.0625 10.51757812 -10.0625 10.51757812 -10.03125 8.51757812 C-10.04671875 7.52757812 -10.04671875 7.52757812 -10.0625 6.51757812 C-8.67664018 1.3002235 -4.95665502 0.01619688 0 0 Z " fill="#609EEA" transform="translate(169.53125,351.482421875)"/>
<path d="M0 0 C1.10794922 -0.01260864 2.21589844 -0.02521729 3.35742188 -0.03820801 C4.54916016 -0.03011108 5.74089844 -0.02201416 6.96875 -0.01367188 C8.19658203 -0.01749878 9.42441406 -0.02132568 10.68945312 -0.02526855 C13.28516459 -0.02799029 15.88090336 -0.02061099 18.4765625 -0.00390625 C22.45374599 0.01749738 26.42912282 -0.0037015 30.40625 -0.02929688 C32.92708733 -0.02665365 35.44792353 -0.02152878 37.96875 -0.01367188 C39.16048828 -0.0217688 40.35222656 -0.02986572 41.58007812 -0.03820801 C43.24200195 -0.01929504 43.24200195 -0.01929504 44.9375 0 C45.91138672 0.00318237 46.88527344 0.00636475 47.88867188 0.00964355 C51.19021681 0.65961178 52.38452655 1.93295409 54.46875 4.51757812 C55 6.51757812 55 6.51757812 54.96875 8.51757812 C54.98421875 9.50757813 54.98421875 9.50757813 55 10.51757812 C54.2245785 13.43681202 52.78007479 14.6111988 50.46875 16.51757812 C47.88867188 17.0255127 47.88867188 17.0255127 44.9375 17.03515625 C43.82955078 17.04776489 42.72160156 17.06037354 41.58007812 17.07336426 C40.38833984 17.06526733 39.19660156 17.05717041 37.96875 17.04882812 C36.12700195 17.05456848 36.12700195 17.05456848 34.24804688 17.0604248 C31.65233541 17.06314654 29.05659664 17.05576724 26.4609375 17.0390625 C22.48375401 17.01765887 18.50837718 17.03885775 14.53125 17.06445312 C12.01041267 17.0618099 9.48957647 17.05668503 6.96875 17.04882812 C5.77701172 17.05692505 4.58527344 17.06502197 3.35742188 17.07336426 C1.69549805 17.05445129 1.69549805 17.05445129 0 17.03515625 C-0.97388672 17.03197388 -1.94777344 17.0287915 -2.95117188 17.0255127 C-6.25271681 16.37554447 -7.44702655 15.10220216 -9.53125 12.51757812 C-10.0625 10.51757812 -10.0625 10.51757812 -10.03125 8.51757812 C-10.04671875 7.52757812 -10.04671875 7.52757812 -10.0625 6.51757812 C-8.67664018 1.3002235 -4.95665502 0.01619688 0 0 Z " fill="#609EEA" transform="translate(89.53125,351.482421875)"/>
<path d="M0 0 C1.10794922 -0.01260864 2.21589844 -0.02521729 3.35742188 -0.03820801 C4.54916016 -0.03011108 5.74089844 -0.02201416 6.96875 -0.01367188 C8.19658203 -0.01749878 9.42441406 -0.02132568 10.68945312 -0.02526855 C13.28516459 -0.02799029 15.88090336 -0.02061099 18.4765625 -0.00390625 C22.45374599 0.01749738 26.42912282 -0.0037015 30.40625 -0.02929688 C32.92708733 -0.02665365 35.44792353 -0.02152878 37.96875 -0.01367188 C39.16048828 -0.0217688 40.35222656 -0.02986572 41.58007812 -0.03820801 C43.24200195 -0.01929504 43.24200195 -0.01929504 44.9375 0 C45.91138672 0.00318237 46.88527344 0.00636475 47.88867188 0.00964355 C51.19021681 0.65961178 52.38452655 1.93295409 54.46875 4.51757812 C55 6.51757812 55 6.51757812 54.96875 8.51757812 C54.98421875 9.50757813 54.98421875 9.50757813 55 10.51757812 C54.2245785 13.43681202 52.78007479 14.6111988 50.46875 16.51757812 C47.88867188 17.0255127 47.88867188 17.0255127 44.9375 17.03515625 C43.82955078 17.04776489 42.72160156 17.06037354 41.58007812 17.07336426 C40.38833984 17.06526733 39.19660156 17.05717041 37.96875 17.04882812 C36.12700195 17.05456848 36.12700195 17.05456848 34.24804688 17.0604248 C31.65233541 17.06314654 29.05659664 17.05576724 26.4609375 17.0390625 C22.48375401 17.01765887 18.50837718 17.03885775 14.53125 17.06445312 C12.01041267 17.0618099 9.48957647 17.05668503 6.96875 17.04882812 C5.77701172 17.05692505 4.58527344 17.06502197 3.35742188 17.07336426 C1.69549805 17.05445129 1.69549805 17.05445129 0 17.03515625 C-0.97388672 17.03197388 -1.94777344 17.0287915 -2.95117188 17.0255127 C-6.25271681 16.37554447 -7.44702655 15.10220216 -9.53125 12.51757812 C-10.0625 10.51757812 -10.0625 10.51757812 -10.03125 8.51757812 C-10.04671875 7.52757812 -10.04671875 7.52757812 -10.0625 6.51757812 C-8.67664018 1.3002235 -4.95665502 0.01619688 0 0 Z " fill="#D664B6" transform="translate(89.53125,159.482421875)"/>
<path d="M0 0 C0.87269531 -0.0038269 1.74539062 -0.00765381 2.64453125 -0.01159668 C4.48699092 -0.0143149 6.32948924 -0.00695994 8.171875 0.00976562 C10.99045934 0.03117752 13.80649485 0.00996199 16.625 -0.015625 C18.41667229 -0.01298171 20.20834299 -0.00785669 22 0 C22.84175781 -0.00809692 23.68351562 -0.01619385 24.55078125 -0.02453613 C30.38715618 0.06889601 30.38715618 0.06889601 33.52929688 2.43945312 C35.12144695 4.7039853 35.542797 5.7922417 35.5 8.53125 C35.5103125 9.19125 35.520625 9.85125 35.53125 10.53125 C34.72011424 13.58493756 33.53019712 14.62236769 31 16.53125 C28.00263779 17.13239553 25.04890723 17.09182764 22 17.0625 C21.12730469 17.0663269 20.25460938 17.07015381 19.35546875 17.07409668 C17.51300908 17.0768149 15.67051076 17.06945994 13.828125 17.05273438 C11.00954066 17.03132248 8.19350515 17.05253801 5.375 17.078125 C3.58332771 17.07548171 1.79165701 17.07035669 0 17.0625 C-0.84175781 17.07059692 -1.68351563 17.07869385 -2.55078125 17.08703613 C-8.38715618 16.99360399 -8.38715618 16.99360399 -11.52929688 14.62304688 C-13.12144695 12.3585147 -13.542797 11.2702583 -13.5 8.53125 C-13.51546875 7.54125 -13.51546875 7.54125 -13.53125 6.53125 C-11.69061453 -0.39820116 -5.94975317 -0.05723107 0 0 Z " fill="#3CAEEA" transform="translate(189,399.46875)"/>
<path d="M0 0 C2.5 1.5 2.5 1.5 4 4 C4.791013 8.02098277 4.62153384 10.96411027 2.5 14.5 C-1.03588973 16.62153384 -3.97901723 16.791013 -8 16 C-10.5 14.5 -10.5 14.5 -12 12 C-12.791013 7.97901723 -12.62153384 5.03588973 -10.5 1.5 C-6.96411027 -0.62153384 -4.02098277 -0.791013 0 0 Z " fill="#28B8E9" transform="translate(372,432)"/>
</svg>
